# xmcd
#
# Track frame offsets:
#	150
#	16340
#	29265
#	49853
#	68477
#	84785
#	103300
#	118240
#	136098
#	155121
#	173088
#	190588
#	207819
#	225620
#	240969
#	257669
#	275328
#	289924
#	306064
#	326362
#
# Disc length: 4547 seconds
#
# Revision: 1
# Processed by: cddbd v1.5.2PL0 Copyright (c) Steve Scherf et al.
# Submitted via: audiograbber 1.83.01
#
DISCID=0811c114
DTITLE=Various Artist - Hit Country Superstars [Disc 1]
DYEAR=2013
DGENRE=Country
TTITLE0=Zac Browne Band - Chicken Fried (Radio Edit)
TTITLE1=Baylou - Hoedown
TTITLE2=Carrie Underwood - Wasted
TTITLE3=McAlister Kemp - It Don't Buy You Love
TTITLE4=Blake Shelton - She Wouldn't Be Gone
TTITLE5=Troy Cassar-Daley - Home
TTITLE6=Joe Nichols - Take It Off
TTITLE7=Jasmine Rae - Sure Thing
TTITLE8=Sugarland - Baby Girl
TTITLE9=Gary Allan - Today
TTITLE10=Billy Currington - People Are Crazy
TTITLE11=Hunter Hayes - Somebody's Heartbreak
TTITLE12=Steve Forde - Dust
TTITLE13=Emerson Drive - She's My Kind Of Crazy
TTITLE14=The McClymonts - Wrapped Up Good
TTITLE15=Doc Walker - Do It Right
TTITLE16=Josh Turner - Why Don't We Just Dance
TTITLE17=Chelsea Basham - I Make My Own Sunshine
TTITLE18=Travis Collins - Start The Car
TTITLE19=Corey Colum - Fire In The Hole
EXTD=
EXTT0=
EXTT1=
EXTT2=
EXTT3=
EXTT4=
EXTT5=
EXTT6=
EXTT7=
EXTT8=
EXTT9=
EXTT10=
EXTT11=
EXTT12=
EXTT13=
EXTT14=
EXTT15=
EXTT16=
EXTT17=
EXTT18=
EXTT19=
PLAYORDER=
